<?xml version="1.0" standalone="no"?>
<!DOCTYPE svg PUBLIC "-//W3C//DTD SVG 20010904//EN"
 "http://www.w3.org/TR/2001/REC-SVG-20010904/DTD/svg10.dtd">
<svg version="1.0" xmlns="http://www.w3.org/2000/svg"
 width="375.000000pt" height="360.000000pt" viewBox="0 0 375.000000 360.000000"
 preserveAspectRatio="xMidYMid meet">

<g transform="translate(0.000000,360.000000) scale(0.100000,-0.100000)"
fill="#000000" stroke="none">
<path d="M2050 3301 c-50 -16 -86 -40 -137 -94 -103 -109 -198 -284 -288 -532
-26 -71 -50 -138 -53 -147 -6 -16 -11 -15 -50 10 -42 26 -44 28 -46 85 -7 156
-182 240 -310 150 l-44 -31 -114 38 c-156 53 -266 68 -340 46 -160 -46 -159
-212 1 -450 81 -120 193 -250 348 -405 80 -79 141 -147 136 -151 -4 -4 -51
-36 -103 -71 -237 -157 -422 -302 -569 -444 -175 -168 -237 -273 -212 -356 50
-167 401 -111 1059 168 9 4 12 -17 12 -88 l-1 -94 -43 -26 c-78 -48 -108 -156
-67 -244 24 -52 57 -82 116 -104 44 -17 49 -22 75 -85 35 -82 68 -127 115
-156 46 -29 117 -29 171 -2 49 25 140 120 190 197 57 90 157 306 203 440 23
66 44 126 46 133 3 9 20 4 57 -18 127 -75 396 -200 514 -240 208 -69 356 -66
414 7 105 134 -26 386 -397 764 l-173 176 102 68 c57 37 133 90 170 116 l67
48 43 -19 c101 -46 208 -7 260 95 17 32 20 51 15 106 l-6 68 52 44 c69 59 165
175 199 240 46 87 34 159 -31 200 -32 19 -49 22 -141 21 -184 -1 -448 -81
-896 -270 -9 -4 -14 30 -18 113 -15 276 -46 456 -99 559 -31 59 -90 117 -136
133 -38 12 -55 13 -91 2z m80 -101 c11 -6 31 -31 46 -56 60 -102 91 -265 101
-530 l6 -171 -174 -85 -174 -84 -135 89 c-76 50 -136 97 -138 107 -5 30 85
267 158 415 78 158 145 252 209 295 47 32 70 36 101 20z m-1167 -507 l112 -38
7 -55 c15 -106 95 -180 196 -180 51 0 122 26 137 50 6 10 48 -7 96 -41 l26
-18 -34 -128 c-18 -70 -40 -164 -49 -208 l-16 -80 -95 -58 -95 -58 -177 178
c-194 196 -321 354 -381 478 -55 111 -60 146 -25 181 26 26 30 27 107 21 53
-4 118 -19 191 -44z m2411 -29 c46 -18 1 -105 -122 -235 -93 -99 -100 -103
-146 -84 -98 41 -212 1 -256 -90 -19 -39 -22 -58 -17 -110 l5 -64 -174 -117
c-197 -134 -177 -130 -272 -45 l-54 48 16 169 c9 93 16 186 16 206 0 30 4 38
28 46 15 6 92 38 172 72 180 76 405 153 541 185 99 22 229 32 263 19z m-1644
-371 c55 -36 100 -69 100 -72 0 -8 -270 -155 -274 -150 -5 5 65 289 70 289 2
0 49 -30 104 -67z m536 -60 c-10 -124 -18 -183 -25 -183 -11 0 -197 145 -199
155 -2 11 193 114 217 114 11 1 13 -15 7 -86z m-176 -196 l135 -104 -2 -44
c-1 -24 -9 -85 -18 -134 l-17 -91 -81 -46 c-45 -25 -133 -74 -196 -107 -132
-72 -99 -79 -281 60 -162 123 -151 103 -129 234 11 61 21 115 23 121 3 6 76
51 163 99 87 48 176 98 198 110 26 15 45 20 55 15 8 -5 76 -56 150 -113z
m-684 -208 c-3 -17 -6 -38 -6 -45 0 -20 -21 -17 -47 8 l-23 21 33 23 c43 31
51 30 43 -7z m984 -38 c0 -8 -72 -51 -85 -51 -3 0 -4 8 -2 18 3 9 8 34 12 55
l6 37 34 -26 c19 -15 35 -30 35 -33z m-1086 -83 c33 -28 64 -55 69 -58 4 -4 3
-40 -3 -81 -5 -41 -14 -132 -20 -204 -6 -71 -14 -133 -18 -137 -14 -14 -309
-132 -442 -177 -191 -65 -322 -94 -422 -95 -54 -1 -91 3 -99 11 -59 59 216
338 601 609 133 94 263 183 269 183 2 1 31 -22 65 -51z m1257 -69 c187 -171
396 -425 465 -563 84 -170 45 -224 -136 -192 -162 29 -451 155 -693 302 -16 9
-15 21 22 170 22 87 43 179 48 203 8 42 12 46 103 102 52 32 97 58 98 59 2 0
44 -37 93 -81z m-872 -240 c1 -8 -239 -122 -244 -117 -5 5 13 229 21 265 4 21
12 17 114 -60 60 -45 109 -85 109 -88z m471 125 c0 -7 -59 -244 -65 -262 -3
-8 -33 6 -92 44 -49 31 -94 62 -101 69 -11 10 10 25 115 83 125 70 143 78 143
66z m-237 -281 c73 -47 134 -88 136 -90 8 -6 -68 -219 -121 -343 -84 -198
-179 -342 -257 -392 -25 -15 -53 -28 -62 -28 -31 0 -75 48 -103 110 l-28 62
42 36 c51 43 70 84 70 152 0 86 -47 153 -126 182 l-34 12 0 111 0 111 168 81
c92 45 171 82 175 82 4 1 67 -38 140 -86z"/>
<path d="M1840 1971 c-122 -26 -218 -136 -196 -226 10 -37 63 -92 102 -105 54
-18 153 -8 209 20 72 38 108 87 113 159 4 54 2 60 -27 94 -44 49 -127 73 -201
58z"/>
</g>
</svg>
