<?xml version="1.0" standalone="no"?>
<!DOCTYPE svg PUBLIC "-//W3C//DTD SVG 20010904//EN"
 "http://www.w3.org/TR/2001/REC-SVG-20010904/DTD/svg10.dtd">
<svg version="1.0" xmlns="http://www.w3.org/2000/svg"
 width="360.000000pt" height="358.000000pt" viewBox="0 0 360.000000 358.000000"
 preserveAspectRatio="xMidYMid meet">
<metadata>
Created by potrace 1.16, written by Peter Selinger 2001-2019
</metadata>
<g transform="translate(0.000000,358.000000) scale(0.100000,-0.100000)"
fill="#000000" stroke="none">
<path d="M1770 3564 c-8 -4 -407 -398 -887 -877 -630 -630 -874 -879 -879
-900 -3 -15 0 -42 6 -58 23 -54 47 -59 274 -59 l206 0 2 -805 3 -805 28 -27
27 -28 401 0 401 0 29 33 29 32 0 380 0 380 390 0 390 0 0 -380 0 -380 29 -32
29 -33 384 -3 c350 -2 386 -1 418 15 19 10 40 29 47 43 10 19 13 204 13 818
l0 792 205 0 c228 0 252 5 275 59 6 16 9 43 6 58 -5 21 -249 271 -879 901
-893 893 -895 895 -947 876z m760 -969 l725 -725 -129 0 c-141 0 -184 -12
-205 -56 -8 -18 -11 -247 -11 -819 l0 -795 -260 0 -260 0 0 375 c0 400 -2 419
-49 445 -27 14 -1055 14 -1082 0 -47 -26 -49 -45 -49 -445 l0 -375 -260 0
-260 0 0 795 c0 572 -3 801 -11 819 -21 44 -64 56 -205 56 l-129 0 725 725
c399 399 727 725 730 725 3 0 331 -326 730 -725z"/>
</g>
</svg>
