<svg height="512" viewBox="0 0 64 64" width="512" xmlns="http://www.w3.org/2000/svg"><path d="m54 34h-12a8 8 0 0 0 -7.138 4.408l-6.862-2.143v-3.479a11 11 0 0 0 6-9.786v-1a3 3 0 0 0 0-6v-3a11 11 0 0 0 -22 0v3a3 3 0 0 0 0 6v1a11 11 0 0 0 6 9.786v3.479l-8.277 2.589a10.943 10.943 0 0 0 -7.723 10.496v11.65a1 1 0 0 0 1 1h40a1 1 0 0 0 1-1v-11.65a11.2 11.2 0 0 0 -.084-1.35h9.142l.719 5.4a3.011 3.011 0 0 0 2.974 2.6h2.249a3 3 0 0 0 3-3v-11a8.009 8.009 0 0 0 -8-8zm-25.7 4.452.493 3.942-4.04-1.731 2.529-2.528zm6.7-19.452a1 1 0 0 1 -1 1v-2a1 1 0 0 1 1 1zm-12-15a9.01 9.01 0 0 1 9 9v3.606a5.605 5.605 0 0 1 -3.052-2.922 1 1 0 0 0 -.948-.684 4.269 4.269 0 0 0 -3.249 1.611 7.993 7.993 0 0 1 -1.8-2.928 1 1 0 0 0 -1.19-.653c-2.77.692-5.881 3.077-7.758 4.7v-2.73a9.01 9.01 0 0 1 8.997-9zm-12 15a1 1 0 0 1 1-1v2a1 1 0 0 1 -1-1zm3 4v-4.576c.995-.946 4.416-4.065 7.424-5.195a7.734 7.734 0 0 0 3.129 3.671 1.008 1.008 0 0 0 1.339-.442 3.034 3.034 0 0 1 1.521-1.358 8.1 8.1 0 0 0 4.587 3.633v4.267a9 9 0 0 1 -18 0zm9 11a10.928 10.928 0 0 0 3-.427v3.013l-3 3-3-3v-3.013a10.928 10.928 0 0 0 3 .427zm-4.279 4.135 2.528 2.528-4.04 1.731.493-3.94zm-14.721 11.215a8.95 8.95 0 0 1 6.318-8.586l5.287-1.654-.6 4.766a1 1 0 0 0 .995 1.124.982.982 0 0 0 .394-.081l6.606-2.831 6.606 2.831a.982.982 0 0 0 .394.081 1 1 0 0 0 .992-1.124l-.6-4.768 3.793 1.184a8.017 8.017 0 0 0 -.185 1.708v11a2.985 2.985 0 0 0 1 2.22v4.78h-24v-11h-2v11h-5zm33 10.65v-4h2.249a3 3 0 0 0 2.751-1.836v5.836zm23-7a1 1 0 0 1 -1 1h-2.249a1 1 0 0 1 -.991-.867l-.72-5.4a2.006 2.006 0 0 0 -1.982-1.733h-10.116a2.006 2.006 0 0 0 -1.982 1.736l-.72 5.4a1 1 0 0 1 -.991.868h-2.249a1 1 0 0 1 -1-1v-11.004a6.006 6.006 0 0 1 6-6h12a6.006 6.006 0 0 1 6 6z"/><path d="m42 38h-2v2h-2v2h2v2h2v-2h2v-2h-2z"/><path d="m54 38h2v2h-2z"/><path d="m56 40h2v2h-2z"/><path d="m54 42h2v2h-2z"/><path d="m52 40h2v2h-2z"/><path d="m45 38h2v2h-2z"/><path d="m49 38h2v2h-2z"/><path d="m17 19h2v2h-2z"/><path d="m27 19h2v2h-2z"/><path d="m27 25h-2a2 2 0 0 1 -4 0h-2a4 4 0 0 0 8 0z"/></svg>