<svg height="512" viewBox="0 0 64 64" width="512" xmlns="http://www.w3.org/2000/svg"><path d="m18.721 38.135-1.019.319-.493 3.94 4.04-1.731z"/><path d="m26 36.586v-3.013a10.752 10.752 0 0 1 -6 0v3.013l3 3z"/><path d="m14 15.728c1.877-1.621 4.988-4.006 7.758-4.7a1 1 0 0 1 1.19.653 7.993 7.993 0 0 0 1.8 2.928 4.269 4.269 0 0 1 3.252-1.609 1 1 0 0 1 .948.684 5.605 5.605 0 0 0 3.052 2.922v-3.606a9 9 0 0 0 -18 0z"/><path d="m28.298 38.452-1.018-.317-2.529 2.528 4.04 1.731z"/><path d="m39.249 56h-2.249v4h5v-5.836a3 3 0 0 1 -2.751 1.836z"/><path d="m54 40h2v2h-2z"/><path d="m59 54a1 1 0 0 0 1-1v-11a6.006 6.006 0 0 0 -6-6h-12a6.006 6.006 0 0 0 -6 6v11a1 1 0 0 0 1 1h2.249a1 1 0 0 0 .991-.868l.72-5.4a2.006 2.006 0 0 1 1.982-1.732h10.116a2.006 2.006 0 0 1 1.982 1.735l.72 5.4a1 1 0 0 0 .991.867zm-15-12h-2v2h-2v-2h-2v-2h2v-2h2v2h2zm3-2h-2v-2h2zm4 0h-2v-2h2zm5 2v2h-2v-2h-2v-2h2v-2h2v2h2v2z"/><path d="m34 18v2a1 1 0 0 0 0-2z"/><path d="m11 19a1 1 0 0 0 1 1v-2a1 1 0 0 0 -1 1z"/><path d="m14 23a9 9 0 0 0 18 0v-4.267a8.1 8.1 0 0 1 -4.587-3.633 3.034 3.034 0 0 0 -1.521 1.358 1.008 1.008 0 0 1 -1.339.442 7.734 7.734 0 0 1 -3.129-3.666c-3.008 1.125-6.424 4.244-7.424 5.19zm13-4h2v2h-2zm-4 8a2 2 0 0 0 2-2h2a4 4 0 0 1 -8 0h2a2 2 0 0 0 2 2zm-6-8h2v2h-2z"/><path d="m4 60h5v-11h2v11h24v-4.78a2.985 2.985 0 0 1 -1-2.22v-11a8.017 8.017 0 0 1 .188-1.708l-3.788-1.184.6 4.768a1 1 0 0 1 -1 1.124.982.982 0 0 1 -.394-.081l-6.606-2.831-6.606 2.831a.982.982 0 0 1 -.394.081 1 1 0 0 1 -.992-1.124l.6-4.766-5.287 1.654a8.95 8.95 0 0 0 -6.321 8.586z"/></svg>