<?xml version="1.0" standalone="no"?>
<!DOCTYPE svg PUBLIC "-//W3C//DTD SVG 20010904//EN"
 "http://www.w3.org/TR/2001/REC-SVG-20010904/DTD/svg10.dtd">
<svg version="1.0" xmlns="http://www.w3.org/2000/svg"
 width="174.000000pt" height="173.000000pt" viewBox="0 0 174.000000 173.000000"
 preserveAspectRatio="xMidYMid meet">
<metadata>
Created by potrace 1.16, written by Peter Selinger 2001-2019
</metadata>
<g transform="translate(0.000000,173.000000) scale(0.100000,-0.100000)"
fill="#000000" stroke="none">
<path d="M910 1270 c-106 -23 -390 -117 -408 -134 -8 -8 -17 -55 -22 -115 -7
-71 -22 -144 -51 -239 l-41 -137 -97 -105 c-116 -127 -160 -182 -67 -85 175
183 169 173 224 355 28 91 53 196 57 233 8 79 25 102 82 113 21 4 73 19 115
35 42 15 113 35 158 43 45 9 86 19 92 22 10 6 83 -5 218 -33 83 -17 270 -105
270 -127 0 -7 -9 -21 -20 -31 -16 -14 -29 -16 -75 -10 -31 3 -71 13 -88 20
-18 7 -79 15 -137 16 -97 3 -114 1 -217 -31 -102 -32 -113 -38 -127 -68 -25
-51 -20 -67 37 -117 89 -79 130 -99 188 -91 75 10 153 52 173 92 44 93 129
144 182 109 28 -18 26 -36 -11 -95 -12 -19 -30 -59 -40 -89 -15 -47 -24 -57
-77 -90 -72 -44 -250 -169 -380 -267 -59 -44 -115 -78 -140 -84 -93 -24 -106
-32 -198 -127 l-95 -97 101 96 c89 84 108 97 155 108 75 18 91 27 263 155 85
63 183 132 218 154 116 73 138 91 150 119 6 15 28 64 50 109 32 66 37 86 29
102 -15 27 -15 28 20 40 17 6 33 20 36 31 3 11 11 20 19 20 15 0 44 38 44 57
0 23 -193 111 -287 132 -135 30 -205 33 -303 11z m295 -19 c79 -18 266 -98
279 -119 8 -13 -10 -52 -24 -52 -6 0 -10 8 -10 18 0 14 -28 32 -102 69 -96 47
-183 72 -301 89 -26 3 -50 11 -54 17 -8 13 108 2 212 -22z m52 -188 c23 -8 69
-16 102 -17 53 -1 58 -3 43 -14 -19 -15 -94 -8 -152 13 -34 13 -207 28 -196
18 3 -3 45 -9 93 -13 83 -8 154 -22 198 -41 16 -7 15 -7 -6 -3 -14 3 -45 -2
-69 -10 -26 -9 -50 -11 -59 -7 -9 5 -52 11 -96 13 -44 3 -71 2 -60 -3 11 -4
45 -8 76 -8 30 -1 63 -7 73 -14 16 -12 14 -17 -23 -74 -45 -66 -93 -95 -183
-108 -43 -6 -53 -4 -96 23 -26 17 -61 45 -77 62 l-29 30 24 25 c15 16 34 25
55 25 31 0 160 39 152 46 -2 2 -30 -5 -62 -16 -32 -11 -73 -20 -91 -20 -20 0
-44 -10 -63 -26 -27 -22 -32 -24 -37 -9 -12 29 27 54 147 91 66 21 117 39 115
41 -6 7 -227 -65 -244 -79 -14 -11 -14 -10 -5 7 8 14 47 31 130 57 109 34 125
36 208 31 50 -3 109 -12 132 -20z"/>
</g>
</svg>
