<?xml version="1.0" standalone="no"?>
<!DOCTYPE svg PUBLIC "-//W3C//DTD SVG 20010904//EN"
 "http://www.w3.org/TR/2001/REC-SVG-20010904/DTD/svg10.dtd">
<svg version="1.0" xmlns="http://www.w3.org/2000/svg"
 width="176.000000pt" height="175.000000pt" viewBox="0 0 176.000000 175.000000"
 preserveAspectRatio="xMidYMid meet">
<metadata>
Created by potrace 1.16, written by Peter Selinger 2001-2019
</metadata>
<g transform="translate(0.000000,175.000000) scale(0.100000,-0.100000)"
fill="#000000" stroke="none">
<path d="M1081 1450 c-64 -41 -104 -74 -245 -198 -49 -44 -72 -59 -74 -48 -6
27 -38 27 -108 2 -38 -14 -88 -30 -111 -36 -35 -9 -49 -21 -95 -82 -29 -40
-72 -94 -94 -119 -35 -40 -50 -72 -93 -201 -28 -84 -51 -165 -51 -180 0 -23
-8 -32 -51 -54 -28 -14 -49 -27 -46 -30 2 -3 26 8 53 24 39 22 50 34 52 58 1
16 26 97 54 179 47 137 58 157 116 230 134 168 129 163 172 170 23 4 69 18
102 32 63 25 88 25 88 -3 0 -21 -19 -37 -190 -153 -80 -55 -161 -114 -180
-131 -47 -42 -19 -27 55 30 33 26 105 76 160 113 94 62 135 94 362 288 153
131 219 162 257 121 11 -13 15 -28 12 -40 -4 -11 -53 -62 -109 -113 -149 -135
-297 -279 -287 -279 5 0 78 66 162 146 217 209 309 284 345 284 36 0 53 -16
53 -52 0 -33 -142 -200 -315 -371 -58 -57 -105 -106 -105 -110 0 -9 232 222
311 312 82 92 105 99 129 41 11 -27 9 -35 -30 -97 -65 -103 -165 -230 -244
-308 -39 -39 -82 -90 -95 -115 -27 -50 -17 -44 21 12 37 57 284 308 303 308 8
0 20 -12 26 -27 17 -43 -32 -127 -162 -278 -62 -72 -130 -159 -152 -193 -28
-45 -80 -98 -171 -179 -148 -129 -259 -206 -359 -248 -37 -15 -66 -29 -64 -31
8 -9 155 60 218 102 131 87 343 280 385 351 13 23 72 98 130 165 112 132 169
210 185 257 15 43 -7 86 -44 86 -27 -1 -35 9 -18 19 5 3 27 37 50 75 48 78 48
111 1 140 -28 16 -28 17 -9 40 60 74 -29 148 -105 87 l-30 -23 -15 31 c-25 49
-70 47 -150 -4z"/>
</g>
</svg>
