<?xml version="1.0" standalone="no"?>
<!DOCTYPE svg PUBLIC "-//W3C//DTD SVG 20010904//EN"
 "http://www.w3.org/TR/2001/REC-SVG-20010904/DTD/svg10.dtd">
<svg version="1.0" xmlns="http://www.w3.org/2000/svg"
 width="174.000000pt" height="175.000000pt" viewBox="0 0 174.000000 175.000000"
 preserveAspectRatio="xMidYMid meet">
<metadata>
Created by potrace 1.16, written by Peter Selinger 2001-2019
</metadata>
<g transform="translate(0.000000,175.000000) scale(0.100000,-0.100000)"
fill="#000000" stroke="none">
<path d="M835 1453 c-47 -25 -77 -51 -97 -85 -11 -17 -47 -62 -80 -101 -74
-86 -106 -155 -143 -306 -24 -96 -33 -118 -62 -147 -40 -40 -72 -58 -133 -73
-55 -14 -272 -102 -266 -108 2 -2 53 16 112 40 60 25 136 52 168 61 63 16 118
54 152 103 11 17 30 77 43 134 29 128 68 210 139 292 30 34 65 79 78 99 13 21
43 50 66 65 40 27 45 28 157 25 136 -4 174 -17 197 -66 30 -62 3 -79 -55 -34
-25 19 -82 23 -116 8 -13 -6 0 -7 37 -3 47 5 59 3 71 -13 56 -68 59 -71 47
-46 -11 23 -11 23 13 10 28 -14 80 -76 104 -121 24 -48 2 -44 -29 4 -12 19
-30 29 -67 36 -28 6 -48 7 -46 3 3 -4 23 -10 45 -14 34 -5 45 -13 68 -50 15
-25 32 -44 37 -44 6 1 20 -18 33 -40 15 -26 19 -42 12 -42 -8 0 -7 -8 4 -25 9
-13 16 -38 16 -54 0 -16 5 -33 10 -36 22 -14 11 -81 -20 -120 -16 -21 -30 -41
-30 -46 0 -4 -39 -38 -87 -75 -49 -37 -124 -101 -168 -142 -52 -49 -108 -88
-160 -114 -44 -22 -93 -50 -109 -61 -15 -11 -75 -39 -131 -62 -105 -42 -259
-125 -250 -133 2 -3 37 14 76 38 39 23 115 60 168 81 53 22 121 54 151 73 30
18 81 45 113 60 33 16 92 59 135 100 42 39 114 100 159 134 45 34 90 74 100
88 10 14 30 41 46 59 16 20 27 45 27 63 0 54 -30 176 -55 224 -14 26 -25 55
-25 64 0 18 -61 112 -89 138 -14 13 -18 26 -14 50 4 27 -1 40 -27 69 -35 41
-46 44 -195 51 -79 4 -106 1 -130 -11z"/>
</g>
</svg>
