<?xml version="1.0" standalone="no"?>
<!DOCTYPE svg PUBLIC "-//W3C//DTD SVG 20010904//EN"
 "http://www.w3.org/TR/2001/REC-SVG-20010904/DTD/svg10.dtd">
<svg version="1.0" xmlns="http://www.w3.org/2000/svg"
 width="174.000000pt" height="172.000000pt" viewBox="0 0 174.000000 172.000000"
 preserveAspectRatio="xMidYMid meet">
<metadata>
Created by potrace 1.16, written by Peter Selinger 2001-2019
</metadata>
<g transform="translate(0.000000,172.000000) scale(0.100000,-0.100000)"
fill="#000000" stroke="none">
<path d="M655 1605 c-17 -16 -25 -35 -25 -59 0 -34 -1 -35 -25 -24 -31 14 -72
-10 -81 -48 -9 -37 13 -319 35 -444 16 -91 28 -340 16 -340 -2 0 -29 26 -60
59 -94 99 -208 147 -278 117 -51 -21 -51 -55 0 -93 62 -46 147 -139 182 -201
74 -126 98 -154 187 -216 l89 -62 5 -139 6 -140 2 142 2 143 -77 51 c-106 70
-117 81 -179 186 -61 102 -135 189 -201 234 -67 46 -52 92 30 92 67 0 134 -36
213 -115 40 -39 77 -67 83 -64 17 11 12 218 -10 351 -18 115 -39 320 -39 397
0 49 36 94 68 84 33 -11 45 -49 86 -271 21 -110 42 -211 47 -225 13 -37 3 21
-47 285 -24 126 -44 240 -44 252 0 25 32 63 53 63 34 0 49 -30 82 -160 18 -74
36 -155 40 -180 9 -59 51 -188 71 -218 10 -15 23 -22 37 -20 31 4 125 189 178
352 40 121 64 166 89 166 6 0 20 -10 31 -21 34 -34 20 -111 -55 -307 -73 -191
-100 -271 -94 -278 3 -2 12 22 22 54 24 76 127 344 139 360 15 20 45 14 63
-14 22 -32 13 -92 -47 -314 l-42 -155 -7 -250 c-5 -178 -12 -264 -23 -300 -21
-69 -29 -160 -18 -225 8 -49 9 -42 10 62 0 64 6 129 12 145 21 55 29 140 30
323 0 102 5 205 10 230 14 71 35 155 69 285 42 161 34 235 -25 235 -22 0 -23
3 -21 71 1 67 -1 73 -26 92 l-28 21 -27 -20 c-21 -16 -36 -49 -69 -153 -25
-75 -68 -180 -101 -242 -72 -137 -85 -140 -125 -29 -14 41 -31 100 -37 130
-40 197 -75 325 -97 347 -30 29 -49 29 -79 -2z"/>
</g>
</svg>
