<?xml version="1.0" standalone="no"?>
<!DOCTYPE svg PUBLIC "-//W3C//DTD SVG 20010904//EN"
 "http://www.w3.org/TR/2001/REC-SVG-20010904/DTD/svg10.dtd">
<svg version="1.0" xmlns="http://www.w3.org/2000/svg"
 width="174.000000pt" height="172.000000pt" viewBox="0 0 174.000000 172.000000"
 preserveAspectRatio="xMidYMid meet">
<metadata>
Created by potrace 1.16, written by Peter Selinger 2001-2019
</metadata>
<g transform="translate(0.000000,172.000000) scale(0.100000,-0.100000)"
fill="#000000" stroke="none">
<path d="M966 1569 c-41 -32 -156 -210 -230 -355 -78 -151 -104 -191 -211
-322 -44 -53 -120 -152 -170 -219 -87 -118 -92 -122 -168 -159 -96 -47 -113
-65 -24 -25 100 45 104 49 208 188 54 72 127 165 162 206 36 41 74 91 85 113
11 21 30 48 42 59 13 11 48 74 80 140 31 66 93 175 138 242 95 142 121 163
156 127 25 -25 19 -54 -35 -164 -47 -96 -129 -316 -129 -345 0 -7 8 -23 18
-34 l17 -22 70 49 c78 54 338 197 398 218 22 8 48 14 58 14 25 0 49 -27 49
-56 0 -19 -22 -39 -122 -105 -68 -45 -143 -98 -167 -118 -24 -20 -80 -56 -125
-81 -85 -48 -102 -73 -51 -78 39 -5 83 -37 91 -67 5 -21 -21 -95 -33 -95 -3 0
-19 10 -36 22 -24 16 -20 9 16 -26 69 -70 63 -119 -18 -155 -26 -12 -52 -33
-64 -51 -36 -60 -279 -248 -357 -277 -16 -6 -49 -18 -74 -27 -25 -9 -56 -26
-70 -37 -20 -17 -15 -16 24 5 27 14 54 26 60 26 6 0 43 15 81 33 85 41 216
138 304 227 36 36 80 71 98 79 43 17 63 42 70 85 4 24 0 43 -11 61 -15 23 -15
26 4 57 29 47 25 75 -14 114 -24 24 -43 34 -65 34 -17 0 -31 4 -31 9 0 5 32
25 70 45 39 21 99 59 133 85 34 26 115 83 180 126 109 72 117 80 117 110 0 46
-29 69 -77 62 -49 -8 -339 -156 -423 -216 -93 -67 -89 -66 -100 -35 -9 23 -4
46 26 133 20 58 60 157 90 220 60 126 66 162 32 185 -29 21 -40 20 -72 -5z"/>
</g>
</svg>
